HIERARCHY
ROOT Hips
{
	OFFSET -0.179506 -22.333345 2.821913
	CHANNELS 6 Xposition Yposition Zposition Zrotation Yrotation Xrotation 
	JOINT LeftUpLeg
	{
		OFFSET 6.951974 -9.140623 -0.681533
		CHANNELS 3 Zrotation Yrotation Xrotation
		JOINT LeftLeg
		{
			OFFSET 3.427654 -37.519855 -0.449580
			CHANNELS 3 Zrotation Yrotation Xrotation
			JOINT LeftFoot
			{
				OFFSET -1.359570 -39.796059 -4.369333
				CHANNELS 3 Zrotation Yrotation Xrotation
				JOINT LeftToe
				{
					OFFSET 2.635814 -5.579078 11.928840
					CHANNELS 3 Zrotation Yrotation Xrotation
					End Site
					{
						OFFSET 0.000000 0.000000 0.000000
					}
				}
			}
		}
	}
	JOINT RightUpLeg
	{
		OFFSET -6.767048 -9.052170 -0.431982
		CHANNELS 3 Zrotation Yrotation Xrotation
		JOINT RightLeg
		{
			OFFSET -3.829005 -38.256897 -0.885003
			CHANNELS 3 Zrotation Yrotation Xrotation
			JOINT RightFoot
			{
				OFFSET 1.577377 -39.841461 -4.231180
				CHANNELS 3 Zrotation Yrotation Xrotation
				JOINT RightToe
				{
					OFFSET -2.537174 -4.814398 12.334795
					CHANNELS 3 Zrotation Yrotation Xrotation
					End Site
					{
						OFFSET 0.000000 0.000000 0.000000
					}
				}
			}
		}
	}
	JOINT Spine
	{
		OFFSET -0.253288 10.896323 -2.669631
		CHANNELS 3 Zrotation Yrotation Xrotation
		JOINT Spine1
		{
			OFFSET 0.548704 13.518043 0.109247
			CHANNELS 3 Zrotation Yrotation Xrotation
			JOINT Spine2
			{
				OFFSET 0.145701 5.292222 2.542457
				CHANNELS 3 Zrotation Yrotation Xrotation
				JOINT Neck
				{
					OFFSET -0.277840 21.387037 -4.285703
					CHANNELS 3 Zrotation Yrotation Xrotation
					JOINT Head
					{
						OFFSET 0.515184 6.496960 5.134897
						CHANNELS 3 Zrotation Yrotation Xrotation
						End Site
						{
							OFFSET 0.000000 0.000000 0.000000
						}
					}
				}
				JOINT LeftShoulder
				{
					OFFSET 7.884473 12.174932 -3.408961
					CHANNELS 3 Zrotation Yrotation Xrotation
					JOINT LeftArm
					{
						OFFSET 9.097692 3.046888 -0.886815
						CHANNELS 3 Zrotation Yrotation Xrotation
						JOINT LeftForeArm
						{
							OFFSET 25.961220 -1.277207 -2.745643
							CHANNELS 3 Zrotation Yrotation Xrotation
							JOINT LeftHand
							{
								OFFSET 24.923361 0.898606 -0.117091
								CHANNELS 3 Zrotation Yrotation Xrotation
								End Site
								{
									OFFSET 0.000000 0.000000 0.000000
								}
							}
						}
					}
				}
				JOINT RightShoulder
				{
					OFFSET -8.175920 11.883285 -3.861528
					CHANNELS 3 Zrotation Yrotation Xrotation
					JOINT RightArm
					{
						OFFSET -9.601238 3.255117 -0.914307
						CHANNELS 3 Zrotation Yrotation Xrotation
						JOINT RightForeArm
						{
							OFFSET -25.374195 -1.332924 -2.140099
							CHANNELS 3 Zrotation Yrotation Xrotation
							JOINT RightHand
							{
								OFFSET -25.529810 0.777228 -0.555919
								CHANNELS 3 Zrotation Yrotation Xrotation
								End Site
								{
									OFFSET 0.000000 0.000000 0.000000
								}
							}
						}
					}
				}
			}
		}
	}
}
MOTION
Frames: 10
Frame Time: 0.033333
371.037628 -346.928406 88.171494 -136.499156 0.460143 92.125069 -0.889403 3.247660 -4.813314 -3.772400 2.754715 4.213653 5.501506 17.108363 -14.517934 nan nan nan -7.116748 -6.530567 -16.996287 2.692025 -8.570139 17.823179 5.330436 -9.343883 16.391190 nan nan nan -0.245643 1.373002 1.989562 3.687797 -1.057779 5.393493 -1.402726 1.263712 -5.428204 2.128650 -7.940162 -0.365052 1.136872 -3.952526 5.577477 -28.142704 4.012663 -1.253640 -54.626180 -1.118062 20.476604 3.450102 -28.023872 0.706966 -8.193587 -9.690407 2.957876 27.851195 2.877668 1.444306 48.652119 2.163862 14.333704 0.986651 23.156046 0.516971 6.326067 6.366131 2.712748 
370.997803 -346.887787 88.202042 -136.567192 0.482209 92.149396 -0.832411 3.286293 -4.852404 -3.821228 3.021641 4.473761 5.487361 17.169200 -14.391200 nan nan nan -7.036422 -6.508982 -16.784167 2.689041 -8.658358 17.735041 5.327332 -9.369986 16.377117 nan nan nan -0.308831 1.405120 1.934660 3.682065 -1.063992 5.404067 -1.388668 1.242552 -5.341319 2.174665 -7.759479 -0.151147 1.189323 -3.910723 5.315076 -27.855628 4.108341 -1.185080 -54.691593 -0.941075 20.524608 3.265660 -28.558916 1.263741 -8.294552 -9.813176 2.808612 27.554623 2.769373 1.471437 48.860614 1.911208 14.482305 1.264775 24.014061 1.214858 6.385074 6.520994 2.373223 
370.015869 -345.114594 88.529984 -133.730265 -0.554269 90.123306 -0.935797 4.066769 -0.271584 -4.424097 0.406268 2.694455 3.826455 15.410371 -14.361113 nan nan nan -7.164310 -7.472982 -7.670291 2.699136 -9.246006 13.622032 4.994150 -9.720503 12.966795 nan nan nan -0.926598 3.054490 -0.510799 1.612591 -0.791336 11.216715 -1.580236 2.760034 -4.887702 4.213718 -6.536701 1.052053 5.501047 -9.198030 -5.495338 -23.752101 -3.528305 2.053892 -57.437149 -3.568562 18.552514 1.424815 -23.462176 -4.943340 -4.621742 -15.229066 -1.450702 21.737724 13.429885 7.755484 56.471121 1.407201 12.080507 3.633587 15.968893 -5.497648 1.302472 12.406448 -11.473917 
369.978729 -345.050140 88.515114 -133.461630 -0.544406 90.127341 -0.962442 3.950623 -0.402686 -4.465412 0.512244 3.216678 4.052570 15.614273 -14.970494 nan nan nan -6.967137 -7.272779 -7.179848 2.735223 -9.004663 13.916367 5.073133 -9.634868 12.641369 nan nan nan -1.016941 3.120508 -0.607747 1.648861 -0.825295 11.374416 -1.594671 2.744236 -4.834845 4.397055 -6.487547 1.305194 5.570719 -9.482591 -5.683424 -23.171040 -3.386188 2.046130 -57.716127 -3.603890 18.723557 1.201086 -23.927804 -4.200954 -4.673671 -15.520928 -1.649776 21.287081 13.390123 7.709352 57.000193 1.136276 12.399520 3.675096 16.613741 -4.948006 1.044790 12.742117 -12.431316 
369.936951 -344.992004 88.522057 -133.247144 -0.499971 90.129251 -0.945169 3.945205 -0.540608 -4.526671 0.720338 3.639359 4.168117 15.792346 -15.256177 nan nan nan -6.805707 -7.165401 -7.091117 2.749580 -8.986139 14.162317 5.094750 -9.660221 12.405643 nan nan nan -1.064765 3.110037 -0.487616 1.738676 -0.849912 11.366926 -1.529033 2.668640 -4.702731 4.402143 -6.447707 1.473186 5.578063 -9.653132 -6.286930 -22.558590 -3.297449 2.097721 -57.887023 -3.584151 18.896467 0.929549 -24.777813 -2.826146 -4.537725 -15.578713 -1.427824 20.790417 13.217124 7.614287 57.402209 0.733699 12.658921 3.818364 17.741209 -3.643577 0.675404 12.868851 -12.780444 
369.549652 -345.405731 88.122551 -133.880709 -0.563841 90.862451 -1.647496 3.556286 -1.163168 -4.541888 2.045622 3.314240 5.297857 16.650958 -15.412112 nan nan nan -6.991431 -7.313677 -5.715894 1.794596 -9.250434 15.989572 5.829979 -9.761718 13.602062 nan nan nan -1.059556 2.978976 -1.261625 2.275817 -1.308112 11.553893 -1.746773 2.061031 -4.939158 4.150222 -6.638317 2.303945 3.203157 -8.734684 -4.188987 -24.839769 -0.480195 3.454290 -57.304654 -2.364336 17.016865 9.262753 -32.439815 3.748518 -5.919422 -13.239690 12.493967 24.008675 7.704494 8.313863 58.253787 -2.047095 10.365042 -6.274508 27.962651 3.939828 2.627326 11.022661 3.788388 
369.432617 -345.327881 88.114677 -133.814620 -0.635518 90.987308 -1.720924 3.577479 -1.188541 -4.664829 2.322803 3.328922 5.277677 16.642289 -15.191939 nan nan nan -6.970701 -7.444268 -4.840280 1.666951 -9.416958 15.751950 5.869061 -9.919745 13.632668 nan nan nan -1.096103 3.097874 -1.568738 2.220835 -1.317472 11.734426 -1.798688 2.041495 -4.790843 4.150997 -6.722878 2.507185 2.991386 -9.113492 -4.593696 -24.320223 -0.360412 3.622780 -57.425430 -2.285707 16.991297 9.477959 -33.882059 5.312796 -5.886806 -13.217437 13.833290 23.613822 7.453788 8.472796 58.809565 -2.591562 10.403019 -6.342563 29.498003 5.671126 2.495074 11.080330 4.656658 
369.384399 -345.302887 88.087326 -133.793270 -0.631752 91.202226 -1.720160 3.510461 -1.489479 -4.765403 2.582999 3.580489 5.329294 16.691295 -15.249054 nan nan nan -6.844965 -7.437645 -4.072530 1.581348 -9.432830 15.666169 5.880420 -10.027164 13.523558 nan nan nan -1.165771 3.209955 -1.649543 2.213367 -1.342421 11.664889 -1.794404 2.016849 -4.546185 4.284188 -6.744614 2.567474 2.907044 -9.305434 -5.214434 -23.795349 -0.073847 3.652203 -57.831022 -2.163100 17.007084 9.711074 -34.835293 6.110569 -5.832685 -13.191450 14.009099 23.128058 7.109248 8.353240 59.455923 -2.940648 10.539537 -6.575441 30.797271 6.613229 2.249099 11.079552 4.391124 
369.427826 -345.345886 88.082588 -133.832636 -0.595846 91.391149 -1.666362 3.378884 -1.950366 -4.848681 2.868835 4.033161 5.453329 16.780968 -15.312233 nan nan nan -6.678939 -7.377022 -3.727029 1.536392 -9.397849 15.827116 5.892830 -10.048725 13.485597 nan nan nan -1.271203 3.317911 -1.658194 2.220197 -1.352129 11.678509 -1.803577 2.017001 -4.515665 4.559863 -6.606144 2.447051 2.888595 -9.381589 -5.194659 -23.603144 0.132688 3.696973 -57.961627 -2.090668 16.999114 10.178049 -35.653245 6.681907 -5.944492 -13.054550 14.608927 23.084198 6.809090 8.403963 59.805424 -3.202104 10.628962 -7.079277 31.994837 7.356103 2.203243 10.977290 4.785482 
369.388153 -345.241791 88.075928 -133.861042 -0.670778 91.502198 -1.682631 3.269752 -2.034277 -4.900676 2.956043 4.177525 5.546884 16.847384 -15.396453 nan nan nan -6.500680 -7.318424 -3.243269 1.481570 -9.334537 15.666332 5.892606 -10.104341 13.387767 nan nan nan -1.401956 3.414447 -1.702977 2.179235 -1.326005 11.779978 -1.836458 1.978384 -4.470604 4.698557 -6.506115 2.350523 2.880525 -9.503967 -5.476877 -23.430247 0.472027 3.629675 -57.969181 -1.958846 16.962560 10.446206 -36.355572 7.175309 -6.104162 -12.978738 15.249099 23.015096 6.480459 8.345737 60.160347 -3.451898 10.777074 -7.318789 32.918235 8.084606 2.242683 10.954535 5.103020 
